<svg width="184" height="56" viewBox="0 0 184 56" fill="none" xmlns="http://www.w3.org/2000/svg">
<rect x="1" y="1" width="182.001" height="54" rx="2" stroke="url(#paint0_linear_0_361)" stroke-opacity="0.7" stroke-width="2"/>
<path d="M21.7875 30.554L28.0025 36.769L34.22 30.5515L37.8368 34.1632L37.8343 34.1657L28.0025 44L18.1708 34.1708L18.1657 34.1657L21.7875 30.554ZM31.6698 27.9987H31.6724L31.6698 28.0013L28.0025 31.6711L24.3352 28.0063L24.3301 27.9987L24.9772 27.3517L25.2906 27.0408L28.0025 24.3289L31.6698 27.9987ZM36.768 28.0015L40.3835 24.386L43.999 28.0015L40.3835 31.6168L36.768 28.0015ZM12 28.0005L15.6155 24.385L19.2308 28.0005L15.6155 31.616L12 28.0005ZM21.7875 25.446L28.0025 19.2336L34.22 25.4511L37.8343 21.8343L28.0025 12L18.1708 21.8318L21.7875 25.446Z" fill="#F3BA2F"/>
<path d="M49.6399 19.7544H57.5053C59.4565 19.7544 60.9325 20.2599 61.9334 21.2709C62.6952 22.0253 63.1147 23.06 63.0935 24.1319V24.18C63.1003 24.6147 63.0397 25.0476 62.914 25.4639C62.8021 25.822 62.6396 26.1625 62.4313 26.4749C62.2372 26.7693 62.0024 27.035 61.7337 27.2634C61.4714 27.4894 61.1838 27.6843 60.8769 27.8448C61.7618 28.1531 62.5577 28.6738 63.1946 29.3612C63.7575 30.0014 64.0388 30.886 64.0388 32.015V32.0631C64.0547 32.768 63.9013 33.4668 63.5914 34.1002C63.2911 34.6838 62.8509 35.1839 62.31 35.556C61.6986 35.9659 61.0177 36.2614 60.3007 36.428C59.4487 36.6299 58.5754 36.7275 57.6999 36.7186H49.6399V19.7544ZM56.7167 26.6139C57.3971 26.6467 58.0745 26.5004 58.6806 26.1893C59.162 25.908 59.4431 25.3754 59.4034 24.8194V24.7714C59.4289 24.2606 59.1911 23.7708 58.7741 23.4748C58.3545 23.1766 57.7487 23.0274 56.9569 23.0274H53.2769V26.6139H56.7167ZM57.71 33.4506C58.3879 33.4885 59.063 33.3334 59.6562 33.0033C60.1263 32.7012 60.3959 32.1657 60.3588 31.6081V31.5601C60.3772 31.0316 60.1316 30.5269 59.7042 30.2155C59.2695 29.8786 58.5668 29.71 57.5963 29.71H53.2769V33.4506H57.71Z" fill="#F3BA2F"/>
<path d="M68.7247 19.7544H72.4578V36.7237H68.7247V19.7544Z" fill="#F3BA2F"/>
<path d="M78.1066 19.7544H81.5489L89.5054 30.1978V19.7544H93.1904V36.7237H90.0134L81.7966 25.9365V36.7237H78.1066V19.7544Z" fill="#F3BA2F"/>
<path d="M104.493 19.6333H107.93L115.202 36.7239H111.304L109.753 32.9176H102.577L101.025 36.7239H97.219L104.493 19.6333ZM108.421 29.6218L106.161 24.117L103.912 29.6218H108.421Z" fill="#F3BA2F"/>
<path d="M119.238 19.7544H122.681L130.632 30.1978V19.7544H134.317V36.7237H131.14L122.923 25.9365V36.7237H119.238V19.7544Z" fill="#F3BA2F"/>
<path d="M147.753 37.022C146.563 37.0321 145.384 36.8019 144.285 36.3446C142.197 35.4823 140.543 33.8116 139.703 31.7144C139.264 30.6281 139.042 29.4665 139.048 28.2947V28.2467C139.029 25.9381 139.918 23.712 141.523 22.0519C142.313 21.2409 143.258 20.5976 144.303 20.1614C145.439 19.6908 146.66 19.456 147.889 19.4714C148.617 19.4661 149.343 19.5311 150.058 19.666C150.67 19.7818 151.268 19.9605 151.842 20.1993C152.364 20.419 152.86 20.6952 153.321 21.0233C153.771 21.3432 154.194 21.7001 154.585 22.0899L152.211 24.8296C151.605 24.27 150.925 23.7964 150.189 23.4218C149.467 23.0766 148.675 22.9034 147.874 22.9163C146.527 22.9019 145.238 23.4676 144.336 24.4682C143.894 24.9618 143.547 25.5335 143.315 26.154C143.071 26.8096 142.949 27.5041 142.953 28.2037V28.2518C142.951 28.9504 143.073 29.6436 143.315 30.299C143.544 30.9218 143.887 31.4968 144.326 31.9949C145.22 33.0079 146.512 33.5839 147.864 33.572C148.715 33.5988 149.56 33.4156 150.323 33.0387C151.05 32.6427 151.722 32.1531 152.323 31.5829L154.698 33.984C154.279 34.4392 153.825 34.8618 153.341 35.2477C152.865 35.6238 152.349 35.9451 151.802 36.2056C151.219 36.4801 150.604 36.6831 149.972 36.8097C149.242 36.956 148.498 37.0273 147.753 37.022Z" fill="#F3BA2F"/>
<path d="M159.104 19.7544H171.875V23.0755H162.776V26.5178H170.788V29.8389H162.789V33.4026H172.001V36.7237H159.111L159.104 19.7544Z" fill="#F3BA2F"/>
<defs>
<linearGradient id="paint0_linear_0_361" x1="0" y1="28" x2="184.001" y2="28" gradientUnits="userSpaceOnUse">
<stop offset="0.081934" stop-color="#909DF4" stop-opacity="0"/>
<stop offset="0.706057" stop-color="#909DF4"/>
<stop offset="1" stop-color="#D795E0"/>
</linearGradient>
</defs>
</svg>
