<svg width="33" height="33" viewBox="0 0 33 33" fill="none" xmlns="http://www.w3.org/2000/svg">
<rect opacity="0.1" x="0.45459" y="0.123108" width="32" height="32" rx="4" fill="#6450E0"/>
<path d="M8.49438 8.97857C8.49438 8.46819 8.67362 8.04714 9.03208 7.71541C9.39054 7.38367 9.85655 7.2178 10.4301 7.2178C10.9934 7.2178 11.4491 7.38111 11.7974 7.70776C12.1558 8.0446 12.3351 8.4835 12.3351 9.0245C12.3351 9.51445 12.161 9.92274 11.8127 10.2494C11.4543 10.5862 10.9831 10.7546 10.3994 10.7546H10.384C9.8207 10.7546 9.36494 10.5862 9.01672 10.2494C8.66849 9.91254 8.49438 9.48893 8.49438 8.97857ZM8.6941 22.3757V12.1479H12.1046V22.3757H8.6941ZM13.9942 22.3757H17.4048V16.6647C17.4048 16.3074 17.4457 16.0318 17.5277 15.8379C17.6711 15.4908 17.8887 15.1974 18.1806 14.9575C18.4725 14.7176 18.8386 14.5977 19.279 14.5977C20.4261 14.5977 20.9997 15.3684 20.9997 16.9097V22.3757H24.4102V16.5116C24.4102 15.0009 24.0517 13.8551 23.3348 13.0743C22.6179 12.2934 21.6705 11.903 20.4927 11.903C19.1715 11.903 18.1422 12.4695 17.4048 13.6025V13.6331H17.3894L17.4048 13.6025V12.1479H13.9942C14.0147 12.4746 14.025 13.4902 14.025 15.1948C14.025 16.8995 14.0147 19.2931 13.9942 22.3757Z" fill="#6450E0"/>
</svg>
