<svg width="32" height="32" viewBox="0 0 32 32" fill="none" xmlns="http://www.w3.org/2000/svg">
<rect opacity="0.1" width="32" height="32" rx="4" fill="#EBF0FA"/>
<path d="M8.03979 8.85549C8.03979 8.34512 8.21903 7.92406 8.57749 7.59233C8.93595 7.26059 9.40196 7.09473 9.9755 7.09473C10.5388 7.09473 10.9946 7.25803 11.3428 7.58468C11.7012 7.92152 11.8805 8.36043 11.8805 8.90143C11.8805 9.39138 11.7064 9.79966 11.3581 10.1263C10.9997 10.4631 10.5286 10.6316 9.94477 10.6316H9.92941C9.36611 10.6316 8.91036 10.4631 8.56213 10.1263C8.2139 9.78946 8.03979 9.36585 8.03979 8.85549ZM8.23951 22.2526V12.0249H11.65V22.2526H8.23951ZM13.5397 22.2526H16.9502V16.5416C16.9502 16.1843 16.9912 15.9088 17.0731 15.7148C17.2165 15.3678 17.4341 15.0743 17.726 14.8344C18.0179 14.5946 18.384 14.4746 18.8244 14.4746C19.9715 14.4746 20.5451 15.2453 20.5451 16.7866V22.2526H23.9556V16.3885C23.9556 14.8778 23.5971 13.732 22.8802 12.9512C22.1633 12.1703 21.2159 11.7799 20.0381 11.7799C18.7169 11.7799 17.6876 12.3464 16.9502 13.4794V13.51H16.9348L16.9502 13.4794V12.0249H13.5397C13.5601 12.3515 13.5704 13.3671 13.5704 15.0718C13.5704 16.7764 13.5601 19.17 13.5397 22.2526Z" fill="#EBF0FA"/>
</svg>
