<svg width="40" height="37" viewBox="0 0 40 37" fill="none" xmlns="http://www.w3.org/2000/svg">
<path d="M7.3663 4.8098L3.2749 27.495C3.10985 28.4101 3.59727 29.3183 4.45112 29.6865L14.3679 33.9633C15.666 34.5231 17.1193 33.5962 17.1591 32.1831L17.8844 6.46527C17.912 5.4837 17.223 4.62723 16.2583 4.44401L9.70772 3.1999C8.61544 2.99245 7.56364 3.71565 7.3663 4.8098Z" fill="#A7C1FA"/>
<path d="M26.3375 3.65196L22.2461 26.3372C22.081 27.2523 22.5685 28.1604 23.4223 28.5287L33.3391 32.8054C34.6371 33.3652 36.0905 32.4384 36.1303 31.0253L36.8556 5.30743C36.8832 4.32586 36.1942 3.4694 35.2295 3.28618L28.6789 2.04207C27.5866 1.83462 26.5348 2.55781 26.3375 3.65196Z" fill="#A7C1FA"/>
</svg>
