<svg width="32" height="32" viewBox="0 0 32 32" fill="none" xmlns="http://www.w3.org/2000/svg">
<rect opacity="0.1" width="32" height="32" rx="4" fill="#EBF0FA"/>
<path d="M8 12.3222V11.9375C8 11.6889 8.09877 11.4504 8.27459 11.2746C8.4504 11.0988 8.68886 11 8.9375 11H22.0625C22.3111 11 22.5496 11.0988 22.7254 11.2746C22.9012 11.4504 23 11.6889 23 11.9375V12.3222L15.5 17.0097L8 12.3222ZM15.7484 17.9601C15.6739 18.0066 15.5878 18.0313 15.5 18.0313C15.4122 18.0313 15.3261 18.0066 15.2516 17.9601L8 13.4278V21.3125C8 21.5611 8.09877 21.7996 8.27459 21.9754C8.4504 22.1512 8.68886 22.25 8.9375 22.25H22.0625C22.3111 22.25 22.5496 22.1512 22.7254 21.9754C22.9012 21.7996 23 21.5611 23 21.3125V13.4278L15.7484 17.9601Z" fill="#EBF0FA"/>
</svg>
