<svg width="33" height="33" viewBox="0 0 33 33" fill="none" xmlns="http://www.w3.org/2000/svg">
<rect opacity="0.1" x="0.45459" y="0.123108" width="32" height="32" rx="4" fill="#6450E0"/>
<path d="M8.45459 12.4453V12.0606C8.45459 11.812 8.55336 11.5735 8.72918 11.3977C8.90499 11.2219 9.14345 11.1231 9.39209 11.1231H22.5171C22.7657 11.1231 23.0042 11.2219 23.18 11.3977C23.3558 11.5735 23.4546 11.812 23.4546 12.0606V12.4453L15.9546 17.1328L8.45459 12.4453ZM16.203 18.0832C16.1285 18.1297 16.0424 18.1544 15.9546 18.1544C15.8667 18.1544 15.7807 18.1297 15.7062 18.0832L8.45459 13.5509V21.4356C8.45459 21.6842 8.55336 21.9227 8.72918 22.0985C8.90499 22.2743 9.14345 22.3731 9.39209 22.3731H22.5171C22.7657 22.3731 23.0042 22.2743 23.18 22.0985C23.3558 21.9227 23.4546 21.6842 23.4546 21.4356V13.5509L16.203 18.0832Z" fill="#6450E0"/>
</svg>
