<svg xmlns="http://www.w3.org/2000/svg" width="15" height="14" viewBox="0 0 15 14" fill="none">
  <path d="M9.83333 0.5C9.83333 0.223858 10.0565 0 10.3327 0C11.1543 0 12.7999 0 13.8006 0C14.1872 0 14.5 0.313401 14.5 0.7V3.5C14.5 3.77614 14.2761 4 14 4C13.7239 4 13.5 3.77614 13.5 3.5V1.7C13.5 1.3134 13.1866 1 12.8 1H10.3333C10.0572 1 9.83333 0.776142 9.83333 0.5ZM4.66667 0C4.94281 0 5.16667 0.223858 5.16667 0.5C5.16667 0.776142 4.94281 1 4.66667 1H2.2C1.8134 1 1.5 1.3134 1.5 1.7V3.5C1.5 3.77614 1.27614 4 1 4C0.723858 4 0.5 3.77614 0.5 3.5V0.7C0.5 0.313401 0.813401 0 1.2 0H4.66667ZM10.3333 14C10.0572 14 9.83333 13.7761 9.83333 13.5C9.83333 13.2239 10.0572 13 10.3333 13H12.8C13.1866 13 13.5 12.6866 13.5 12.3V10.5C13.5 10.2239 13.7239 10 14 10C14.2761 10 14.5 10.2239 14.5 10.5V13.3C14.5 13.6866 14.1866 14 13.8 14H10.3333ZM5.16667 13.5C5.16667 13.7761 4.94281 14 4.66667 14H1.2C0.8134 14 0.5 13.6866 0.5 13.3V10.5C0.5 10.2239 0.723858 10 1 10C1.27614 10 1.5 10.2239 1.5 10.5V12.3C1.5 12.6866 1.8134 13 2.2 13H4.66667C4.94281 13 5.16667 13.2239 5.16667 13.5ZM0.5 7C0.5 6.72386 0.723858 6.5 1 6.5H14C14.2761 6.5 14.5 6.72386 14.5 7C14.5 7.27614 14.2761 7.5 14 7.5H1C0.723857 7.5 0.5 7.27614 0.5 7Z" fill="#6450E0"/>
</svg>