<svg width="40" height="37" viewBox="0 0 40 37" fill="none" xmlns="http://www.w3.org/2000/svg">
<path d="M7.38034 4.8098L3.28893 27.495C3.12389 28.4101 3.61131 29.3183 4.46516 29.6865L14.3819 33.9633C15.68 34.5231 17.1333 33.5962 17.1732 32.1831L17.8984 6.46527C17.9261 5.4837 17.2371 4.62723 16.2724 4.44401L9.72176 3.1999C8.62948 2.99245 7.57768 3.71565 7.38034 4.8098Z" fill="#F7D288"/>
<path d="M26.3517 3.65196L22.2602 26.3372C22.0952 27.2523 22.5826 28.1604 23.4365 28.5287L33.3533 32.8054C34.6513 33.3652 36.1046 32.4384 36.1445 31.0253L36.8697 5.30743C36.8974 4.32586 36.2084 3.4694 35.2437 3.28618L28.6931 2.04207C27.6008 1.83462 26.549 2.55781 26.3517 3.65196Z" fill="#F7D288"/>
</svg>
