<svg width="37" height="34" viewBox="0 0 37 34" fill="none" xmlns="http://www.w3.org/2000/svg">
<path d="M6.4841 2.08862L0.431118 24.3309C0.186945 25.2282 0.593363 26.1753 1.41187 26.6166L10.9182 31.7414C12.1625 32.4122 13.6911 31.6155 13.8539 30.2113L16.8179 4.6545C16.931 3.67908 16.3193 2.76582 15.3742 2.49922L8.95692 0.68892C7.88688 0.387064 6.77605 1.01583 6.4841 2.08862Z" fill="#CEB8FC"/>
<path d="M25.4841 2.58862L19.4311 24.8309C19.1869 25.7282 19.5934 26.6753 20.4119 27.1166L29.9182 32.2414C31.1625 32.9122 32.6911 32.1155 32.8539 30.7113L35.8179 5.1545C35.931 4.17908 35.3193 3.26582 34.3742 2.99922L27.9569 1.18892C26.8869 0.887064 25.776 1.51583 25.4841 2.58862Z" fill="#CEB8FC"/>
</svg>
